Coordinates
version=1
nRows=7
nColumns=46
inDegrees=yes

Units are S.I. units (second, meters, Newtons, ...)
Angles are in degrees.

endheader
time	pelvis_tilt	pelvis_list	pelvis_rotation	pelvis_tx	pelvis_ty	pelvis_tz	bb_angle	bb_tx	bb_ty	bb_tz	hip_flexion_r	hip_adduction_r	hip_rotation_r	knee_angle_r	knee_angle_r_beta	ankle_angle_r	subtalar_angle_r	mtp_angle_r	crank_angle_r	hip_flexion_l	hip_adduction_l	hip_rotation_l	knee_angle_l	knee_angle_l_beta	ankle_angle_l	subtalar_angle_l	mtp_angle_l	crank_angle_l	lumbar_extension	lumbar_bending	lumbar_rotation	arm_flex_r	arm_add_r	arm_rot_r	elbow_flex_r	pro_sup_r	wrist_flex_r	wrist_dev_r	arm_flex_l	arm_add_l	arm_rot_l	elbow_flex_l	pro_sup_l	wrist_flex_l	wrist_dev_l
      0.00500000	    -20.38442726	      0.15939780	      5.45115952	      0.20076300	      1.05605474	     -0.23657840	      0.00000000	      0.50000000	      0.00000000	      0.25000000	     51.93493944	     -5.22560642	      1.90302286	     82.56766878	      1.44107768	     16.57921759	    -11.22602126	      0.00000000	      0.00000000	     74.25072275	     -2.86836108	     -0.69436130	     65.84060228	      1.14913529	     -0.61284611	     -3.97465903	      0.00000000	      0.00000000	    -49.83575147	      0.63625280	     -4.04989910	     78.88892373	    -17.69542616	     32.26569795	     47.64451182	     48.63228090	      0.00000000	      0.00000000	     75.10809967	    -15.03279343	     23.41475214	     56.75723498	     45.97254607	      0.00000000	      0.00000000
      0.01000000	    -20.39061057	      0.13699189	      5.46070112	      0.20083536	      1.05603513	     -0.23656392	      0.00000000	      0.50000000	      0.00000000	      0.25000000	     51.93660694	     -5.21989688	      1.87164485	     82.57206671	      1.44115443	     16.57321185	    -11.24004129	      0.00000000	      0.00000000	     74.26094053	     -2.88338152	     -0.69877541	     65.84665749	      1.14924097	     -0.59229119	     -3.94624526	      0.00000000	      0.00000000	    -49.83986987	      0.67444561	     -4.03919162	     78.91097979	    -17.77990594	     32.49600973	     47.74487409	     48.56919920	      0.00000000	      0.00000000	     75.07119323	    -15.10659681	     23.44061559	     56.88091898	     45.95581239	      0.00000000	      0.00000000
      0.01500000	    -20.44212586	      0.12978301	      5.44277018	      0.20094557	      1.05602702	     -0.23651995	      0.00000000	      0.50000000	      0.00000000	      0.25000000	     51.96920364	     -5.19295900	      1.89581291	     82.53991956	      1.44059336	     16.66204026	    -11.20138948	      0.00000000	      0.00000000	     74.29614886	     -2.91537924	     -0.70996553	     65.82439192	      1.14885237	     -0.57619341	     -3.87936713	      0.00000000	      0.00000000	    -49.83986197	      0.69647022	     -4.00687974	     78.67262287	    -17.71139052	     31.87053686	     48.33972710	     48.43975546	      0.00000000	      0.00000000	     74.77553062	    -15.05441354	     22.97331088	     57.31882826	     45.91991298	      0.00000000	      0.00000000
      0.02000000	    -20.40618797	      0.16167792	      5.47732070	      0.20089284	      1.05588192	     -0.23671977	      0.00000000	      0.50000000	      0.00000000	      0.25000000	     52.01527923	     -5.32813290	      1.85526797	     82.66803424	      1.44282938	     16.59505127	    -10.96870852	      0.00000000	      0.00000000	     74.28490332	     -2.84385340	     -0.69499484	     65.88583098	      1.14992468	     -0.53414596	     -3.92046806	      0.00000000	      0.00000000	    -49.83414167	      0.69122675	     -4.14895570	     78.86984916	    -17.79592429	     32.66999524	     47.95615243	     48.42516547	      0.00000000	      0.00000000	     75.01418067	    -15.24824082	     23.39190344	     57.04379298	     45.89932576	      0.00000000	      0.00000000
      0.02500000	    -20.46971315	      0.15100392	      5.45592582	      0.20082487	      1.05595769	     -0.23675485	      0.00000000	      0.50000000	      0.00000000	      0.25000000	     52.08472590	     -5.30208634	      1.88871702	     82.66263248	      1.44273511	     16.60248540	    -11.03682285	      0.00000000	      0.00000000	     74.34948143	     -2.85454793	     -0.65545570	     65.89262056	      1.15004318	     -0.50036452	     -3.89699438	      0.00000000	      0.00000000	    -49.81068256	      0.70154687	     -4.13032338	     78.63805899	    -17.77593883	     32.15836423	     48.42649751	     48.33040197	      0.00000000	      0.00000000	     74.84511559	    -15.20602250	     23.01314782	     57.40152610	     45.87562068	      0.00000000	      0.00000000
      0.03000000	    -20.49141743	      0.13056674	      5.46699791	      0.20089063	      1.05597699	     -0.23669315	      0.00000000	      0.50000000	      0.00000000	      0.25000000	     52.09896692	     -5.28974853	      1.86594592	     82.66964817	      1.44285755	     16.59166506	    -11.01167188	      0.00000000	      0.00000000	     74.37612411	     -2.86064745	     -0.64297460	     65.89261560	      1.15004309	     -0.48381112	     -3.88886497	      0.00000000	      0.00000000	    -49.83919298	      0.69766649	     -4.08501817	     78.43214376	    -17.73150342	     31.68308222	     48.85066412	     48.24326700	      0.00000000	      0.00000000	     74.70736060	    -15.17032676	     22.63582198	     57.75003359	     45.85349032	      0.00000000	      0.00000000
      0.03500000	    -20.49584638	      0.13440476	      5.48531902	      0.20095328	      1.05614623	     -0.23675419	      0.00000000	      0.50000000	      0.00000000	      0.25000000	     52.06564815	     -5.32021344	      1.84298411	     82.57331057	      1.44117614	     16.52226680	    -11.07085905	      0.00000000	      0.00000000	     74.35898447	     -2.83341580	     -0.64859351	     65.86648687	      1.14958706	     -0.53357159	     -3.99414925	      0.00000000	      0.00000000	    -49.81875276	      0.71849720	     -4.11031298	     78.70111629	    -17.88160816	     32.53657039	     48.38053828	     48.28432660	      0.00000000	      0.00000000	     74.86387795	    -15.28297636	     23.22486244	     57.38791621	     45.86136487	      0.00000000	      0.00000000
